<svg id="SvgjsSvg1074" width="1041.5" height="355" xmlns="http://www.w3.org/2000/svg" version="1.1" xmlns:xlink="http://www.w3.org/1999/xlink" xmlns:svgjs="http://svgjs.com/svgjs"><defs id="SvgjsDefs1075"><pattern patternUnits="userSpaceOnUse" id="pattern_mark_0" width="300" height="300"><text x="150" y="100" fill="rgba(229,229,229,0.8)" font-size="18" transform="rotate(-45, 150, 150)" style="dominant-baseline: middle; text-anchor: middle;"></text></pattern><pattern patternUnits="userSpaceOnUse" id="pattern_mark_1" width="300" height="300"><text x="150" y="200" fill="rgba(229,229,229,0.8)" font-size="18" transform="rotate(-45, 150, 150)" style="dominant-baseline: middle; text-anchor: middle;"></text></pattern><marker id="SvgjsMarker1099" markerWidth="13" markerHeight="9" refX="9.5" refY="4.5" viewBox="0 0 13 9" orient="auto" markerUnits="userSpaceOnUse" stroke-dasharray="0,0"><path id="SvgjsPath1100" d="M0,0 L13,4.5 L0,9 L0,0" fill="#323232" stroke="#323232" stroke-width="1"></path></marker><marker id="SvgjsMarker1103" markerWidth="13" markerHeight="9" refX="9.5" refY="4.5" viewBox="0 0 13 9" orient="auto" markerUnits="userSpaceOnUse" stroke-dasharray="0,0"><path id="SvgjsPath1104" d="M0,0 L13,4.5 L0,9 L0,0" fill="#323232" stroke="#323232" stroke-width="1"></path></marker><marker id="SvgjsMarker1115" markerWidth="13" markerHeight="9" refX="9.5" refY="4.5" viewBox="0 0 13 9" orient="auto" markerUnits="userSpaceOnUse" stroke-dasharray="0,0"><path id="SvgjsPath1116" d="M0,0 L13,4.5 L0,9 L0,0" fill="#323232" stroke="#323232" stroke-width="1"></path></marker><marker id="SvgjsMarker1139" markerWidth="13" markerHeight="9" refX="9.5" refY="4.5" viewBox="0 0 13 9" orient="auto" markerUnits="userSpaceOnUse" stroke-dasharray="0,0"><path id="SvgjsPath1140" d="M0,0 L13,4.5 L0,9 L0,0" fill="#323232" stroke="#323232" stroke-width="1"></path></marker><marker id="SvgjsMarker1143" markerWidth="13" markerHeight="9" refX="9.5" refY="4.5" viewBox="0 0 13 9" orient="auto" markerUnits="userSpaceOnUse" stroke-dasharray="0,0"><path id="SvgjsPath1144" d="M0,0 L13,4.5 L0,9 L0,0" fill="#323232" stroke="#323232" stroke-width="1"></path></marker></defs><rect id="svgbackgroundid" width="1041.5" height="355" fill="transparent"></rect><rect id="SvgjsRect1077" width="1041.5" height="355" fill="url(#pattern_mark_0)"></rect><rect id="SvgjsRect1078" width="1041.5" height="355" fill="url(#pattern_mark_1)"></rect><g id="SvgjsG1079" transform="translate(435.5,189)"><path id="SvgjsPath1080" d="M 16.667 0L 112.333 0C 134.556 0 134.556 50 112.333 50L 16.667 50C -5.556 50 -5.556 0 16.667 0Z" stroke="rgba(91,121,232,1)" stroke-width="1.5" fill-opacity="1" fill="#5b79e8"></path><g id="SvgjsG1081"><text id="SvgjsText1082" font-family="&quot;Microsoft YaHei&quot;, 微软雅黑, Arial" text-anchor="middle" font-size="20px" width="109px" fill="#ffffff" font-weight="400" align="middle" lineHeight="125%" anchor="middle" family="&quot;Microsoft YaHei&quot;, 微软雅黑, Arial" size="20px" weight="400" font-style="" opacity="1" y="7" transform="rotate(0)"><tspan id="SvgjsTspan1083" dy="25" x="64.5"><tspan id="SvgjsTspan1084" style="">CPython</tspan></tspan></text></g></g><g id="SvgjsG1085" transform="translate(582.5,37)"><path id="SvgjsPath1086" d="M 16.667 0L 107.333 0C 129.556 0 129.556 50 107.333 50L 16.667 50C -5.556 50 -5.556 0 16.667 0Z" stroke="rgba(255,255,255,1)" stroke-width="1.5" fill-opacity="1" fill="#7bd144"></path><g id="SvgjsG1087"><text id="SvgjsText1088" font-family="&quot;Microsoft YaHei&quot;, 微软雅黑, Arial" text-anchor="middle" font-size="20px" width="104px" fill="#323232" font-weight="400" align="middle" lineHeight="125%" anchor="middle" family="&quot;Microsoft YaHei&quot;, 微软雅黑, Arial" size="20px" weight="400" font-style="" opacity="1" y="7" transform="rotate(0)"><tspan id="SvgjsTspan1089" dy="25" x="62"><tspan id="SvgjsTspan1090" style="">pybind11</tspan></tspan></text></g></g><g id="SvgjsG1091" transform="translate(303.5,37)"><path id="SvgjsPath1092" d="M 16.667 0L 102.333 0C 124.556 0 124.556 50 102.333 50L 16.667 50C -5.556 50 -5.556 0 16.667 0Z" stroke="rgba(255,255,255,1)" stroke-width="1.5" fill-opacity="1" fill="#7bd144"></path><g id="SvgjsG1093"><text id="SvgjsText1094" font-family="&quot;Microsoft YaHei&quot;, 微软雅黑, Arial" text-anchor="middle" font-size="20px" width="99px" fill="#323232" font-weight="400" align="middle" lineHeight="125%" anchor="middle" family="&quot;Microsoft YaHei&quot;, 微软雅黑, Arial" size="20px" weight="400" font-style="" opacity="1" y="7" transform="rotate(0)"><tspan id="SvgjsTspan1095" dy="25" x="59.5"><tspan id="SvgjsTspan1096" style="">PyCXX</tspan></tspan></text></g></g><g id="SvgjsG1097"><path id="SvgjsPath1098" d="M499.88921018188705 188.2582280564739C 500 120.67957845563302 363 155.32042154436698 363.3988433452066 89.67037899669401" stroke="#323232" stroke-width="1.5" fill="none" marker-end="url(#SvgjsMarker1099)"></path></g><g id="SvgjsG1101"><path id="SvgjsPath1102" d="M500.1091900238098 188.25799087694259C 500 118.25058304127163 644.5 157.74941695872837 644.1069159142849 89.67123284300669" stroke="#323232" stroke-width="1.5" fill="none" marker-end="url(#SvgjsMarker1103)"></path></g><g id="SvgjsG1105" transform="translate(386,290)"><path id="SvgjsPath1106" d="M 0 0L 212 0L 228 16L 228 40L 0 40L 0 0Z" stroke="none" fill-opacity="1" fill="#fff7bc"></path><path id="SvgjsPath1107" d="M 212 0L 212 16L 228 16Z" stroke="none" fill-opacity="1" fill="#e4d089"></path><path id="SvgjsPath1108" d="M 0 0L 212 0L 228 16L 228 40L 0 40L 0 0Z" stroke="none" fill="none"></path><g id="SvgjsG1109"><text id="SvgjsText1110" font-family="&quot;Microsoft YaHei&quot;, 微软雅黑, Arial" text-anchor="middle" font-size="20px" width="208px" fill="#323232" font-weight="400" align="middle" lineHeight="125%" anchor="middle" family="&quot;Microsoft YaHei&quot;, 微软雅黑, Arial" size="20px" weight="400" font-style="" opacity="1" y="2" transform="rotate(0)"><tspan id="SvgjsTspan1111" dy="25" x="114"><tspan id="SvgjsTspan1112" style="">Python C API的实现</tspan></tspan></text></g></g><g id="SvgjsG1113"><path id="SvgjsPath1114" d="M500 290L500 264.5L500 264.5L500 241.70000000000005" stroke-dasharray="1.5,2.25" stroke="#323232" stroke-width="1.5" fill="none" marker-end="url(#SvgjsMarker1115)"></path></g><g id="SvgjsG1117" transform="translate(25,25)"><path id="SvgjsPath1118" d="M 0 0L 196 0L 212 16L 212 74L 0 74L 0 0Z" stroke="none" fill-opacity="1" fill="#fff7bc"></path><path id="SvgjsPath1119" d="M 196 0L 196 16L 212 16Z" stroke="none" fill-opacity="1" fill="#e4d089"></path><path id="SvgjsPath1120" d="M 0 0L 196 0L 212 16L 212 74L 0 74L 0 0Z" stroke="none" fill="none"></path><g id="SvgjsG1121"><text id="SvgjsText1122" font-family="&quot;Microsoft YaHei&quot;, 微软雅黑, Arial" text-anchor="middle" font-size="20px" width="192px" fill="#323232" font-weight="400" align="middle" lineHeight="125%" anchor="middle" family="&quot;Microsoft YaHei&quot;, 微软雅黑, Arial" size="20px" weight="400" font-style="" opacity="1" y="6.5" transform="rotate(0)"><tspan id="SvgjsTspan1123" dy="25" x="106"><tspan id="SvgjsTspan1124" style="">轻量级的C++封装，</tspan></tspan><tspan id="SvgjsTspan1125" dy="25" x="106"><tspan id="SvgjsTspan1126" style="">早期项目，更新慢</tspan></tspan></text></g></g><g id="SvgjsG1127" transform="translate(795.5,25)"><path id="SvgjsPath1128" d="M 0 0L 205 0L 221 16L 221 74L 0 74L 0 0Z" stroke="none" fill-opacity="1" fill="#fff7bc"></path><path id="SvgjsPath1129" d="M 205 0L 205 16L 221 16Z" stroke="none" fill-opacity="1" fill="#e4d089"></path><path id="SvgjsPath1130" d="M 0 0L 205 0L 221 16L 221 74L 0 74L 0 0Z" stroke="none" fill="none"></path><g id="SvgjsG1131"><text id="SvgjsText1132" font-family="&quot;Microsoft YaHei&quot;, 微软雅黑, Arial" text-anchor="middle" font-size="20px" width="201px" fill="#323232" font-weight="400" align="middle" lineHeight="125%" anchor="middle" family="&quot;Microsoft YaHei&quot;, 微软雅黑, Arial" size="20px" weight="400" font-style="" opacity="1" y="6.5" transform="rotate(0)"><tspan id="SvgjsTspan1133" dy="25" x="110.5"><tspan id="SvgjsTspan1134" style="">更完整的C++封装，</tspan></tspan><tspan id="SvgjsTspan1135" dy="25" x="110.5"><tspan id="SvgjsTspan1136" style="">生态较火</tspan></tspan></text></g></g><g id="SvgjsG1137"><path id="SvgjsPath1138" d="M237 62L300.8 62" stroke-dasharray="1.5,2.25" stroke="#323232" stroke-width="1.5" fill="none" marker-end="url(#SvgjsMarker1139)"></path></g><g id="SvgjsG1141"><path id="SvgjsPath1142" d="M795.5 62L709.2 62" stroke-dasharray="1.5,2.25" stroke="#323232" stroke-width="1.5" fill="none" marker-end="url(#SvgjsMarker1143)"></path></g><g id="SvgjsG1145"></g></svg>