<?xml version="1.0" standalone="no"?><!DOCTYPE svg PUBLIC "-//W3C//DTD SVG 1.1//EN" "http://www.w3.org/Graphics/SVG/1.1/DTD/svg11.dtd"><svg t="1751122379321" class="icon" viewBox="0 0 1024 1024" version="1.1" xmlns="http://www.w3.org/2000/svg" p-id="5321" xmlns:xlink="http://www.w3.org/1999/xlink" width="200" height="200"><path d="M1003.52 373.76V235.52c0-5.12-5.12-10.24-5.12-10.24L865.28 128c-5.12-5.12-10.24-5.12-20.48 0l-92.16 61.44-15.36-10.24v-20.48c0-5.12-5.12-10.24-5.12-10.24L593.92 51.2c-5.12-5.12-10.24-5.12-20.48 0l-40.96 30.72L460.8 30.72c-5.12 0-10.24 0-15.36 5.12L40.96 322.56c-5.12 5.12-5.12 5.12-5.12 10.24v133.12c0 5.12 5.12 10.24 5.12 10.24l25.6 20.48-25.6 20.48c-5.12 5.12-5.12 10.24-5.12 10.24v271.36c0 5.12 5.12 10.24 5.12 10.24L174.08 896c5.12 5.12 10.24 5.12 15.36 5.12s10.24 0 15.36-5.12l76.8-51.2 20.48 15.36c10.24 5.12 20.48 5.12 30.72 0l25.6-15.36s76.8 51.2 81.92 56.32c15.36 5.12 25.6 10.24 35.84 0 5.12-5.12 76.8-56.32 76.8-56.32s20.48 10.24 20.48 15.36c10.24 5.12 20.48 5.12 25.6 0l20.48-15.36s215.04 148.48 220.16 148.48c5.12 5.12 15.36 10.24 30.72 0l128-87.04c5.12-5.12 10.24-10.24 10.24-15.36v-143.36c0-5.12-5.12-10.24-5.12-10.24L896 660.48l112.64-76.8c5.12-5.12 5.12-5.12 5.12-10.24v-133.12c0-5.12-5.12-10.24-5.12-10.24l-25.6-20.48 20.48-15.36c5.12-10.24 0-20.48 0-20.48z m-143.36-215.04l107.52 76.8-117.76 81.92c-5.12 5.12-5.12 5.12-5.12 10.24s5.12 10.24 5.12 10.24l112.64 92.16-368.64 261.12-107.52-76.8 117.76-81.92 138.24-102.4c5.12-5.12 5.12-5.12 5.12-10.24s-5.12-10.24-5.12-10.24l-81.92-51.2 66.56-56.32c5.12 0 10.24-5.12 10.24-10.24V245.76l122.88-87.04zM481.28 742.4v-92.16l97.28 71.68v92.16l-97.28-71.68z m-409.6-87.04v-97.28l235.52 163.84v97.28l-235.52-163.84z m117.76-204.8l240.64 168.96-107.52 76.8-240.64-168.96 107.52-76.8z m291.84-261.12l102.4 76.8v97.28l-102.4-71.68v-102.4z m46.08 174.08l-81.92 56.32c-5.12 5.12-5.12 10.24-5.12 10.24v153.6l-128-92.16L512 348.16l15.36 15.36z m-46.08 97.28l92.16 61.44-92.16 66.56v-128z m117.76 35.84l-107.52-71.68 61.44-46.08 25.6 20.48c10.24 5.12 20.48 5.12 25.6 0l25.6-20.48 66.56 46.08-97.28 71.68z m10.24-138.24V266.24l102.4-76.8v87.04l-102.4 81.92z m-153.6-51.2l30.72 20.48-199.68 143.36-61.44-40.96 225.28-163.84v25.6c-5.12 5.12-5.12 10.24 5.12 15.36z m122.88-225.28l112.64 76.8-97.28 71.68-107.52-81.92 92.16-66.56z m-122.88-15.36l51.2 35.84-56.32 40.96c-5.12 5.12-5.12 10.24-5.12 15.36V230.4l-256 179.2-107.52-76.8 373.76-266.24z m-384 389.12v-92.16l92.16 66.56-66.56 46.08-25.6-20.48z m102.4 399.36l-102.4-66.56v-92.16L174.08 768v87.04z m35.84 5.12v-71.68l51.2 35.84-51.2 35.84z m128-138.24l102.4-71.68v92.16l-102.4 76.8v-97.28z m102.4 61.44v76.8l-51.2-35.84 51.2-40.96z m40.96 71.68v-71.68l51.2 35.84-51.2 35.84z m245.76-81.92l117.76 87.04v97.28l-189.44-133.12 71.68-51.2z m250.88 107.52l-97.28 66.56v-97.28l97.28-66.56v97.28z m-10.24-133.12l-107.52 76.8-107.52-71.68 107.52-76.8 107.52 71.68z m10.24-189.44l-368.64 256v-92.16l368.64-256v92.16z m-92.16-225.28l92.16-66.56v97.28l-25.6 20.48-66.56-51.2z" p-id="5322"></path></svg>