<?xml version="1.0" standalone="no"?><!DOCTYPE svg PUBLIC "-//W3C//DTD SVG 1.1//EN" "http://www.w3.org/Graphics/SVG/1.1/DTD/svg11.dtd"><svg t="1752560463948" class="icon" viewBox="0 0 1024 1024" version="1.1" xmlns="http://www.w3.org/2000/svg" p-id="11051" xmlns:xlink="http://www.w3.org/1999/xlink" width="200" height="200"><path d="M208 992a16 16 0 0 1-16-16v-640a16 16 0 0 1 32 0v640a16 16 0 0 1-16 16zM304 992a16 16 0 0 1-16-16v-576a16 16 0 0 1 32 0v576a16 16 0 0 1-16 16z" fill="#455A64" p-id="11052"></path><path d="M848 224a16 16 0 0 1-14.304-23.168l32-64a16 16 0 0 1 28.64 14.304l-32 64A16.064 16.064 0 0 1 848 224zM752 224a16 16 0 0 1-14.304-23.168l32-64a16 16 0 0 1 28.64 14.304l-32 64A16.064 16.064 0 0 1 752 224zM656 224a16 16 0 0 1-14.304-23.168l32-64a16 16 0 0 1 28.64 14.304l-32 64A16.064 16.064 0 0 1 656 224zM560 224a16 16 0 0 1-14.304-23.168l32-64a16 16 0 0 1 28.64 14.304l-32 64A16.064 16.064 0 0 1 560 224zM128 224a16 16 0 0 1-14.304-23.168l32-64a16 16 0 0 1 28.64 14.336l-32 64A16.064 16.064 0 0 1 128 224zM464 224a16 16 0 0 1-14.304-23.168l32-64a16 16 0 0 1 28.64 14.304l-32 64A16.064 16.064 0 0 1 464 224zM400 224a16 16 0 0 1-8.864-2.688l-96-64a16 16 0 1 1 17.728-26.624l96 64A16 16 0 0 1 400 224z" fill="#455A64" p-id="11053"></path><path d="M208 224a16 16 0 0 1-8.864-29.312l96-64a16 16 0 1 1 17.728 26.624l-96 64A15.808 15.808 0 0 1 208 224z" fill="#455A64" p-id="11054"></path><path d="M208 224h-160a16 16 0 0 1-14.304-23.136l32-64A16 16 0 0 1 80 128h128a16 16 0 1 1 0 32H89.888l-16 32H208a16 16 0 0 1 0 32zM976 224H384a16 16 0 0 1 0-32h553.376l-32-32H400a16 16 0 0 1 0-32h512c4.256 0 8.32 1.696 11.328 4.672l64 64A15.968 15.968 0 0 1 976 224z" fill="#455A64" p-id="11055"></path><path d="M304 960a16 16 0 0 1-8.864-2.688l-96-64a16 16 0 1 1 17.728-26.624l96 64A16 16 0 0 1 304 960zM304 864a16 16 0 0 1-8.864-2.688l-96-64a16 16 0 1 1 17.728-26.624l96 64A16 16 0 0 1 304 864zM304 768a16 16 0 0 1-8.864-2.688l-96-64a16 16 0 1 1 17.728-26.624l96 64A16 16 0 0 1 304 768zM304 672a16 16 0 0 1-8.864-2.688l-96-64a16 16 0 1 1 17.728-26.624l96 64A16 16 0 0 1 304 672zM304 576a16 16 0 0 1-8.864-2.688l-96-64a16 16 0 1 1 17.728-26.624l96 64A16 16 0 0 1 304 576zM304 480a16 16 0 0 1-8.864-2.688l-96-64a16 16 0 1 1 17.728-26.624l96 64A16 16 0 0 1 304 480z" fill="#455A64" p-id="11056"></path><path d="M208 144h192v192h-192z" fill="#FFF176" p-id="11057"></path><path d="M400 352h-192a16 16 0 0 1-16-16v-192a16 16 0 0 1 16-16h192a16 16 0 0 1 16 16v192a16 16 0 0 1-16 16zM224 320h160V160H224v160z" fill="#455A64" p-id="11058"></path><path d="M272 208h64v64h-64z" fill="#FFFFFF" p-id="11059"></path><path d="M336 288h-64a16 16 0 0 1-16-16v-64a16 16 0 0 1 16-16h64a16 16 0 0 1 16 16v64a16 16 0 0 1-16 16zM288 256h32V224H288v32z" fill="#455A64" p-id="11060"></path><path d="M304 160a16 16 0 0 1-16-16V91.52l-64-21.312V144a16 16 0 0 1-32 0v-96a15.968 15.968 0 0 1 21.088-15.168l96 32A16 16 0 0 1 320 80v64a16 16 0 0 1-16 16zM496 992H211.2a16 16 0 0 1 0-32h284.8a16 16 0 0 1 0 32z" fill="#455A64" p-id="11061"></path><path d="M560 976m-16 0a16 16 0 1 0 32 0 16 16 0 1 0-32 0Z" fill="#455A64" p-id="11062"></path><path d="M672 912c-134.624 0-254.72-90.24-292.064-219.424a16 16 0 1 1 30.752-8.864C444.064 799.264 551.552 880 672 880a16 16 0 0 1 0 32zM948.704 543.872a16 16 0 0 1-15.36-11.552C899.936 416.736 792.448 336 672 336a16 16 0 0 1 0-32c134.624 0 254.72 90.24 292.064 219.424a16 16 0 0 1-15.36 20.448z" fill="#455A64" p-id="11063"></path><path d="M880 634.72v-53.44l-49.056-10.72a163.296 163.296 0 0 0-20.096-48.48l27.104-42.272-37.76-37.76-42.336 27.072c-14.752-9.12-31.04-16-48.416-20.096l-10.752-49.024h-53.44l-10.72 49.024a163.296 163.296 0 0 0-48.416 20.096l-42.304-27.104-37.76 37.792 27.072 42.272c-9.152 14.784-16 31.04-20.064 48.416l-49.056 10.784v53.44l49.024 10.72c4.064 17.376 10.944 33.696 20.064 48.416l-27.072 42.304 37.76 37.792 42.304-27.136c14.72 9.184 31.008 16.032 48.416 20.128l10.72 49.024h53.44l10.72-49.024a163.2 163.2 0 0 0 48.416-20.064l42.336 27.136 37.76-37.856-27.104-42.272c9.152-14.752 16-31.072 20.064-48.448l49.152-10.72zM671.968 688a80 80 0 1 1 0-160 80 80 0 0 1 0 160z" fill="#80D8FF" p-id="11064"></path><path d="M698.688 831.968h-53.44a16 16 0 0 1-15.616-12.576l-8.672-39.488a175.68 175.68 0 0 1-34.464-14.336l-34.048 21.856a16 16 0 0 1-19.968-2.144l-37.76-37.792a16 16 0 0 1-2.176-19.936l21.824-34.08a178.016 178.016 0 0 1-14.304-34.464l-39.488-8.64a16.064 16.064 0 0 1-12.576-15.648v-53.44c0-7.52 5.216-14.016 12.576-15.616l39.488-8.672c3.52-11.904 8.32-23.424 14.304-34.464l-21.792-34.048a16 16 0 0 1 2.144-19.936l37.76-37.792a15.904 15.904 0 0 1 19.936-2.144l34.08 21.824a178.88 178.88 0 0 1 34.464-14.304l8.672-39.488a16 16 0 0 1 15.616-12.64h53.44a16 16 0 0 1 15.616 12.576l8.672 39.488c11.936 3.552 23.456 8.352 34.464 14.304l34.112-21.824a16.064 16.064 0 0 1 19.936 2.176l37.76 37.76a16 16 0 0 1 2.144 19.936l-21.824 34.08c6.016 11.008 10.784 22.56 14.336 34.496l39.52 8.64a16.064 16.064 0 0 1 12.576 15.648v53.44a16 16 0 0 1-12.608 15.616l-39.52 8.64c-3.52 11.936-8.32 23.488-14.304 34.496l21.824 34.048a16 16 0 0 1-2.144 19.936l-37.76 37.856a16 16 0 0 1-19.968 2.176l-34.112-21.856a179.648 179.648 0 0 1-34.432 14.272l-8.672 39.488a16 16 0 0 1-15.616 12.576z m-40.576-32h27.712l8-36.448a16.064 16.064 0 0 1 11.968-12.16 147.744 147.744 0 0 0 43.648-18.08 16 16 0 0 1 17.056 0.128l31.456 20.16 19.552-19.616-20.16-31.456a16 16 0 0 1-0.128-17.056c8.416-13.568 14.496-28.256 18.08-43.648a16.064 16.064 0 0 1 12.16-12L864 621.824v-27.68l-36.48-7.968a16 16 0 0 1-12.16-11.968 147.488 147.488 0 0 0-18.144-43.712 16 16 0 0 1 0.128-17.056l20.128-31.456-19.552-19.552-31.488 20.128a16.16 16.16 0 0 1-17.056 0.128 145.984 145.984 0 0 0-43.648-18.112 16 16 0 0 1-11.968-12.16L685.824 416h-27.712l-8 36.448a16.064 16.064 0 0 1-11.968 12.16c-15.392 3.616-30.08 9.728-43.648 18.112a16.064 16.064 0 0 1-17.056-0.128l-31.456-20.128-19.552 19.552 20.128 31.456a16 16 0 0 1 0.128 17.056 145.888 145.888 0 0 0-18.112 43.616 16 16 0 0 1-12.128 12l-36.448 8v27.712l36.448 7.968a16 16 0 0 1 12.16 12c3.616 15.392 9.696 30.08 18.08 43.616a16 16 0 0 1-0.096 17.056l-20.128 31.456 19.552 19.584 31.456-20.16a16.128 16.128 0 0 1 17.12-0.096c13.44 8.384 28.096 14.496 43.616 18.112a16 16 0 0 1 11.968 12.16l7.936 36.416zM671.968 704c-52.928 0-96-43.072-96-96s43.072-96 96-96 96 43.072 96 96a16 16 0 0 1-32 0c0-35.296-28.704-64-64-64s-64 28.704-64 64 28.704 64 64 64a16 16 0 0 1 0 32z" fill="#455A64" p-id="11065"></path><path d="M729.6 665.6m-16 0a16 16 0 1 0 32 0 16 16 0 1 0-32 0Z" fill="#455A64" p-id="11066"></path><path d="M976 592m-16 0a16 16 0 1 0 32 0 16 16 0 1 0-32 0Z" fill="#455A64" p-id="11067"></path><path d="M368 592m-16 0a16 16 0 1 0 32 0 16 16 0 1 0-32 0Z" fill="#455A64" p-id="11068"></path></svg>