<?xml version="1.0" standalone="no"?><!DOCTYPE svg PUBLIC "-//W3C//DTD SVG 1.1//EN" "http://www.w3.org/Graphics/SVG/1.1/DTD/svg11.dtd"><svg t="1752561437695" class="icon" viewBox="0 0 1024 1024" version="1.1" xmlns="http://www.w3.org/2000/svg" p-id="13663" xmlns:xlink="http://www.w3.org/1999/xlink" width="200" height="200"><path d="M568.87296 510.29504h-14.208v-28.46208H512V168.96h184.87296v312.87296h-85.32992v28.46208h-14.208V552.96h-28.46208v-42.66496z m142.25408 312.87296H312.87808v28.45696H0v-56.87296h1024v56.87296h-312.87296v-28.45696z m270.208-483.54304v71.12704h28.45696v-99.584h-170.66496v99.584h28.416V339.62496h113.792z m-227.54304 312.87808V282.752H1024v483.54304H0v-113.792h753.792zM0 296.96h412.45696v327.12704H0V296.96z m128 71.12704c-47.1296 0-85.33504 38.20544-85.33504 85.32992v28.416c0 47.1296 38.20544 85.33504 85.33504 85.33504h128c47.1296 0 85.33504-38.20544 85.33504-85.33504v-28.416c0-47.12448-38.20544-85.32992-85.33504-85.32992H128z m241.792 14.208V552.96H384V382.29504h-14.208z m469.32992 199.12192v42.67008h71.08608v-42.67008H839.1168z m0-170.66496v156.416h170.67008v-156.416H839.1168z m-398.24896 170.66496h284.45696v42.67008H440.87296v-42.67008z m184.91904-170.66496v42.66496h42.66496v-42.66496h-42.66496z m0-42.66496v28.416h42.66496v-28.416h-42.66496z m355.53792-128h28.46208v28.416h-28.46208v-28.416z m0-28.46208h28.46208v14.208h-28.46208v-14.208z m0-42.66496h28.46208v28.45696h-28.46208V168.96z" fill="#13227a" p-id="13664"></path></svg>