<?xml version="1.0" standalone="no"?><!DOCTYPE svg PUBLIC "-//W3C//DTD SVG 1.1//EN" "http://www.w3.org/Graphics/SVG/1.1/DTD/svg11.dtd"><svg t="1748086723694" class="icon" viewBox="0 0 1407 1024" version="1.1" xmlns="http://www.w3.org/2000/svg" p-id="16946" xmlns:xlink="http://www.w3.org/1999/xlink" width="274.8046875" height="200"><path d="M853.201436 122.54761l7.380561 8.233806 3.242328-0.426622 11.305484-1.109218 11.348147-0.725257 11.390809-0.255973c156.14367-0.426622 289.249749 113.865425 313.140584 268.942539l1.194541 8.276468 0.810582 7.679197 7.764522 3.327652a317.534791 317.534791 0 0 1 186.561822 272.270192l0.426622 8.959063 0.085324 8.745752c0 172.141997-136.519056 312.969935-307.807808 317.492129l-8.276468 0.042662H316.126938C141.510534 1024 0 881.806871 0 706.422547a317.70544 317.70544 0 0 1 179.309247-285.452813l7.807184-3.626288 6.825953-2.986354v-33.532493A382.125369 382.125369 0 0 1 427.688604 29.629328l8.617766-3.540963 8.660427-3.242328a379.096353 379.096353 0 0 1 408.191977 99.701573h0.042662z m-359.173103 4.778167a266.382807 266.382807 0 0 0-185.025983 246.331571l-0.042662 8.063157v119.539498l-43.174151 10.964187a201.877554 201.877554 0 0 0-150.768233 194.241019c0 106.356877 82.082082 194.539654 187.713702 201.62158l6.612642 0.298636 6.78329 0.127986h775.68421c111.049719 0 201.066972-90.443874 201.109634-201.962878a201.877554 201.877554 0 0 0-143.515657-192.705179l-7.081926-2.005124-43.387463-10.45224v-54.735609c0-111.476341-89.931928-201.920216-200.938985-201.962878-12.58535 0.213311-25.128039 1.578502-37.500078 4.052909l-9.215036 2.090448-37.542741 9.257699-22.525644-31.911329a264.633657 264.633657 0 0 0-297.227581-100.810791l0.042662-0.042662z" fill="#3D94FF" p-id="16947"></path></svg>