<?xml version="1.0" standalone="no"?><!DOCTYPE svg PUBLIC "-//W3C//DTD SVG 1.1//EN" "http://www.w3.org/Graphics/SVG/1.1/DTD/svg11.dtd"><svg t="1748094183011" class="icon" viewBox="0 0 1024 1024" version="1.1" xmlns="http://www.w3.org/2000/svg" p-id="5173" xmlns:xlink="http://www.w3.org/1999/xlink" width="500" height="500"><path d="M742.829419 595.637677a200.40671 200.40671 0 0 0-174.08 100.418065l-248.501677-134.110968a159.083355 159.083355 0 0 0-66.593032-163.674839l83.835871-195.022451a102.069677 102.069677 0 0 0 57.244903-28.605936 100.748387 100.748387 0 0 0 0-143.326967A102.333935 102.333935 0 0 0 322.460903 1.651613c-26.161548 0-52.323097 9.909677-72.27458 29.662968a100.748387 100.748387 0 0 0 0 143.36c10.24 10.173935 22.627097 18.101677 36.269419 23.155613l-78.848 178.704516a162.386581 162.386581 0 0 0-45.188129-6.342194c-88.955871 0-161.06529 71.481806-161.06529 159.677936 0 88.196129 72.109419 159.710968 161.06529 159.710967a161.230452 161.230452 0 0 0 140.354064-81.292387l246.949162 133.351226a197.070452 197.070452 0 0 0-7.068904 52.488258c0 109.601032 89.616516 198.490839 200.175484 198.490839 110.558968 0 200.175484-88.856774 200.175484-198.523871 0-109.601032-89.616516-198.457806-200.175484-198.457807z m101.07871-348.292129c-54.668387 0-99.162839-44.098065-99.162839-98.304 0-54.172903 44.494452-98.270968 99.129807-98.270967 54.668387 0 99.129806 44.098065 99.129806 98.270967 0 54.205935-44.461419 98.304-99.096774 98.304zM330.685935 204.998194l-1.519483-0.759742 3.005935-0.231226-1.486452 0.990968zM285.200516 66.064516a52.52129 52.52129 0 0 1 37.260387-15.293935c14.071742 0 27.284645 5.450323 37.227355 15.293935a51.959742 51.959742 0 0 1 0 73.827097 52.52129 52.52129 0 0 1-37.227355 15.293935 52.52129 52.52129 0 0 1-37.260387-15.293935 51.959742 51.959742 0 0 1 0-73.827097zM162.419613 640.429419c-61.473032 0-111.516903-49.581419-111.516903-110.558967 0-60.944516 50.043871-110.558968 111.516903-110.558968 61.506065 0 111.516903 49.614452 111.516903 110.558968 0 60.977548-50.010839 110.558968-111.516903 110.558967z m686.905806 259.303226a150.296774 150.296774 0 0 1-106.496 43.73471 150.296774 150.296774 0 0 1-106.529032-43.73471 147.720258 147.720258 0 0 1-44.098064-105.604129c0-39.902968 15.65729-77.394581 44.098064-105.604129a150.296774 150.296774 0 0 1 106.529032-43.73471 150.296774 150.296774 0 0 1 106.496 43.73471 147.720258 147.720258 0 0 1 44.131097 105.604129 147.720258 147.720258 0 0 1-44.131097 105.604129zM843.875097 1.651613c-82.118194 0-148.645161 65.998452-148.645162 147.389935 0 15.525161 2.411355 30.488774 6.87071 44.527484L286.72 422.416516l24.047484 42.941936 414.059355-228.05471a148.876387 148.876387 0 0 0 119.08129 59.160774c82.118194 0 148.678194-65.998452 148.678194-147.422968 0-81.391484-66.56-147.389935-148.645162-147.389935z" fill="#ED4C4C" p-id="5174"></path></svg>