<?xml version="1.0" standalone="no"?><!DOCTYPE svg PUBLIC "-//W3C//DTD SVG 1.1//EN" "http://www.w3.org/Graphics/SVG/1.1/DTD/svg11.dtd"><svg t="1752739572329" class="icon" viewBox="0 0 1024 1024" version="1.1" xmlns="http://www.w3.org/2000/svg" p-id="11461" xmlns:xlink="http://www.w3.org/1999/xlink" width="200" height="200"><path d="M392.533333 324.266667h230.4v34.133333H392.533333zM631.466667 273.066667h298.666666v34.133333H631.466667zM93.866667 273.066667h298.666666v34.133333H93.866667zM366.933333 733.866667h298.666667v34.133333H366.933333zM652.8 793.6c0 9.386667 7.68 17.066667 17.066667 17.066667v-34.133334c-9.386667 0-17.066667 7.68-17.066667 17.066667zM785.066667 524.8c-9.386667 0-17.066667 7.68-17.066667 17.066667h34.133333c0-9.386667-7.68-17.066667-17.066666-17.066667zM669.866667 776.533333v34.133334H768v-34.133334H669.866667zM768 541.866667V776.533333h34.133333V541.866667h-34.133333zM768 776.533333v34.133334c18.773333 0 34.133333-15.36 34.133333-34.133334h-34.133333z" fill="#00474F" p-id="11462"></path><path d="M780.8 471.893333c2.56-3.413333 6.826667-3.413333 9.386667 0l27.306666 38.4c2.56 3.413333 2.56 9.386667 0 12.8l-27.306666 38.4c-2.56 3.413333-6.826667 3.413333-9.386667 0l-27.306667-38.4c-2.56-3.413333-2.56-9.386667 0-12.8l27.306667-38.4zM234.666667 471.893333c2.56-3.413333 6.826667-3.413333 9.386666 0l27.306667 38.4c2.56 3.413333 2.56 9.386667 0 12.8l-27.306667 38.4c-2.56 3.413333-6.826667 3.413333-9.386666 0l-27.306667-38.4c-2.56-3.413333-2.56-9.386667 0-12.8l27.306667-38.4z" fill="#00474F" p-id="11463"></path><path d="M354.133333 776.533333v34.133334c9.386667 0 17.066667-7.68 17.066667-17.066667s-7.68-17.066667-17.066667-17.066667zM238.933333 494.933333c-9.386667 0-17.066667 7.68-17.066666 17.066667h34.133333c0-9.386667-7.68-17.066667-17.066667-17.066667z m17.066667 281.6v34.133334h98.133333v-34.133334H256z m-34.133333-264.533333v264.533333h34.133333V512h-34.133333z m0 264.533333c0 18.773333 15.36 34.133333 34.133333 34.133334v-34.133334h-34.133333zM375.466667 204.8H102.4c-18.773333 0-34.133333 15.36-34.133333 34.133333v204.8c0 18.773333 15.36 34.133333 34.133333 34.133334h273.066667c18.773333 0 34.133333-15.36 34.133333-34.133334V238.933333c0-18.773333-15.36-34.133333-34.133333-34.133333z m0 238.933333H102.4V238.933333h273.066667v204.8zM921.6 204.8H648.533333c-18.773333 0-34.133333 15.36-34.133333 34.133333v204.8c0 18.773333 15.36 34.133333 34.133333 34.133334h273.066667c18.773333 0 34.133333-15.36 34.133333-34.133334V238.933333c0-18.773333-15.36-34.133333-34.133333-34.133333z m0 238.933333H648.533333V238.933333h273.066667v204.8z" fill="#00474F" p-id="11464"></path><path d="M648.533333 665.6H375.466667c-18.773333 0-34.133333 15.36-34.133334 34.133333v204.8c0 18.773333 15.36 34.133333 34.133334 34.133334h273.066666c18.773333 0 34.133333-15.36 34.133334-34.133334V699.733333c0-18.773333-15.36-34.133333-34.133334-34.133333z m0 238.933333H375.466667V699.733333h273.066666v204.8z" fill="#00474F" p-id="11465"></path></svg>