<?xml version="1.0" standalone="no"?><!DOCTYPE svg PUBLIC "-//W3C//DTD SVG 1.1//EN" "http://www.w3.org/Graphics/SVG/1.1/DTD/svg11.dtd"><svg t="1751170257246" class="icon" viewBox="0 0 1024 1024" version="1.1" xmlns="http://www.w3.org/2000/svg" p-id="5161" xmlns:xlink="http://www.w3.org/1999/xlink" width="200" height="200"><path d="M836.8 358.805333l-78.997333 48.021334c-26.112 20.309333-46.165333 11.946667-50.282667-20.885334l-21.888-89.941333a21.333333 21.333333 0 0 0-21.162667-18.666667h-47.658666a21.290667 21.290667 0 0 0-21.162667 18.645334l-21.909333 89.92c-4.096 32.832-24.192 41.152-50.325334 20.842666l-79.232-48.256a21.525333 21.525333 0 0 0-28.330666 1.6l-33.706667 33.706667c-7.616 7.616-8.213333 19.84-1.6 28.330667l48.170667 79.168c20.309333 26.112 12.032 46.250667-20.8 50.368l-90.24 21.930666a21.589333 21.589333 0 0 0-19.008 21.162667v47.68c0 10.752 8.341333 19.84 19.008 21.162667l90.112 21.909333c32.832 4.096 41.237333 24.192 20.928 50.325333l-48.256 79.274667a21.546667 21.546667 0 0 0 1.6 28.373333l33.706666 33.706667c7.616 7.616 19.882667 8.170667 28.373334 1.578667l79.189333-48.192c26.112-20.309333 46.272-12.032 50.368 20.8l21.930667 89.941333c1.344 10.666667 10.410667 18.709333 21.184 18.709333h47.68a21.333333 21.333333 0 0 0 21.162666-18.730666l21.909334-89.962667c4.096-32.832 24.192-41.173333 50.325333-20.864l78.954667 47.957333a21.162667 21.162667 0 0 0 28.032-1.898666l33.706666-33.706667a21.12 21.12 0 0 0 1.898667-28.032l-48.042667-79.018667c-20.309333-26.112-11.968-46.186667 20.885334-50.282666l89.642666-21.888a21.077333 21.077333 0 0 0 18.368-21.162667V594.773333c0-10.752-7.68-19.84-18.368-21.162666l-89.770666-21.909334c-32.832-4.096-41.088-24.192-20.757334-50.325333l47.957334-78.912a21.12 21.12 0 0 0-1.92-28.010667l-33.706667-33.706666a21.056 21.056 0 0 0-27.968-1.941334z m-105.642667 350.293334a128 128 0 1 1-181.013333-181.013334 128 128 0 0 1 181.013333 181.013334z" fill="#386CC6" p-id="5162"></path><path d="M554.666667 341.333333V106.666667H64v789.333333h192V597.333333h128v-149.333333h-128v-106.666667z" fill="#FF500A" p-id="5163"></path></svg>