<?xml version="1.0" standalone="no"?><!DOCTYPE svg PUBLIC "-//W3C//DTD SVG 1.1//EN" "http://www.w3.org/Graphics/SVG/1.1/DTD/svg11.dtd"><svg t="1751122777273" class="icon" viewBox="0 0 1024 1024" version="1.1" xmlns="http://www.w3.org/2000/svg" p-id="14717" xmlns:xlink="http://www.w3.org/1999/xlink" width="200" height="200"><path d="M0 0h1024v1024H0z" fill="#FFFFFF" fill-opacity="0" p-id="14718"></path><path d="M213.333333 85.333333h469.333334l213.333333 215.296V853.333333a85.333333 85.333333 0 0 1-85.333333 85.333334H213.333333a85.333333 85.333333 0 0 1-85.333333-85.333334V170.666667a85.333333 85.333333 0 0 1 85.333333-85.333334z" fill="#00C090" p-id="14719"></path><path d="M682.666667 85.333333v189.696c0 13.056 10.709333 23.637333 23.893333 23.637334H896l-213.333333-213.333334z" fill="#1B9479" p-id="14720"></path><path d="M768 640a28.16 28.16 0 0 1-15.061333 25.045333l-224.725334 126.293334a26.88 26.88 0 0 1-16.213333 5.12 26.88 26.88 0 0 1-16.213333-5.12l-224.725334-126.293334A28.16 28.16 0 0 1 256 640V384a28.16 28.16 0 0 1 15.061333-25.045333l224.725334-126.293334a26.88 26.88 0 0 1 16.213333-5.12c5.973333 0 11.648 1.706667 16.213333 5.12l224.725334 126.293334A28.16 28.16 0 0 1 768 384v256m-256-351.274667L342.485333 384 512 479.274667 681.514667 384 512 288.725333m-199.125333 334.506667l170.666666 96.128v-190.848l-170.666666-95.872v190.592m398.250666 0V432.64l-170.666666 95.872v190.848l170.666666-96.128z" fill="#FFFFFF" p-id="14721"></path></svg>