<?xml version="1.0" standalone="no"?><!DOCTYPE svg PUBLIC "-//W3C//DTD SVG 1.1//EN" "http://www.w3.org/Graphics/SVG/1.1/DTD/svg11.dtd"><svg t="1748088413171" class="icon" viewBox="0 0 1024 1024" version="1.1" xmlns="http://www.w3.org/2000/svg" p-id="28798" xmlns:xlink="http://www.w3.org/1999/xlink" width="500" height="500"><path d="M405.333333 482.133333h-256c-42.666667 0-76.8-34.133333-76.8-76.8v-256c0-42.666667 34.133333-76.8 76.8-76.8h256c42.666667 0 76.8 34.133333 76.8 76.8v256c-4.266667 42.666667-34.133333 76.8-76.8 76.8z m-256-341.333333c-4.266667 0-8.533333 4.266667-8.533333 8.533333v256c0 4.266667 4.266667 8.533333 8.533333 8.533334h256c4.266667 0 8.533333-4.266667 8.533334-8.533334v-256c0-4.266667-4.266667-8.533333-8.533334-8.533333h-256zM405.333333 951.466667h-256c-42.666667 0-76.8-34.133333-76.8-76.8v-256c0-42.666667 34.133333-76.8 76.8-76.8h256c42.666667 0 76.8 34.133333 76.8 76.8v256c-4.266667 42.666667-34.133333 76.8-76.8 76.8z m-256-341.333334c-4.266667 0-8.533333 4.266667-8.533333 8.533334v256c0 4.266667 4.266667 8.533333 8.533333 8.533333h256c4.266667 0 8.533333-4.266667 8.533334-8.533333v-256c0-4.266667-4.266667-8.533333-8.533334-8.533334h-256zM874.666667 482.133333h-256c-42.666667 0-76.8-34.133333-76.8-76.8v-256c0-42.666667 34.133333-76.8 76.8-76.8h256c42.666667 0 76.8 34.133333 76.8 76.8v256c-4.266667 42.666667-34.133333 76.8-76.8 76.8z m-256-341.333333c-4.266667 0-8.533333 4.266667-8.533334 8.533333v256c0 4.266667 4.266667 8.533333 8.533334 8.533334h256c4.266667 0 8.533333-4.266667 8.533333-8.533334v-256c0-4.266667-4.266667-8.533333-8.533333-8.533333h-256zM746.666667 951.466667c-110.933333 0-204.8-89.6-204.8-204.8s89.6-200.533333 204.8-200.533334 204.8 89.6 204.8 200.533334-93.866667 204.8-204.8 204.8z m0-341.333334c-76.8 0-136.533333 64-136.533334 136.533334s64 136.533333 136.533334 136.533333 136.533333-64 136.533333-136.533333-59.733333-136.533333-136.533333-136.533334z" fill="#0091FF" p-id="28799"></path></svg>